<svg width="62" height="56" fill="none" xmlns="http://www.w3.org/2000/svg"><g clip-path="url(#a)" fill="#E8BEAC"><path d="M0 50.21V22.065c.045-.087.081-.179.108-.273.418-2.154 1.614-3.73 3.536-4.77.12-.065.232-.137.356-.212-.077-.427-.135-.824-.222-1.215C2.76 11.035 5.714 7.725 9.3 7.12c5.095-.855 10.178-1.785 15.266-2.68 8.138-1.435 16.28-2.847 24.411-4.31 3.917-.704 7.272 1.494 8.069 5.397.213 1.044.384 2.098.568 3.145 1.357 7.683 2.695 15.368 4.073 23.046.69 3.84-1.406 7.204-5.119 8.054-.92.212-1.854.378-2.79.499-.44.056-.5.248-.499.624.011 2.718.03 5.436-.01 8.153a8.259 8.259 0 0 1-.342 2.37c-.902 2.833-3.43 4.577-6.538 4.579H6.954c-.202 0-.404 0-.604-.015a6.687 6.687 0 0 1-5.043-2.703C.604 52.364.287 51.296 0 50.21Zm3.63-13.759v12.61c0 2.046 1.26 3.307 3.32 3.307h39.376c2.097 0 3.329-1.243 3.329-3.35V37.06c0-.195-.018-.39-.028-.61H3.63Zm49.656.223c.934-.17 1.793-.287 2.63-.484 1.104-.265 1.887-.968 2.142-2.07a5.217 5.217 0 0 0-.015-2.02c-1.09-6.319-2.216-12.633-3.33-18.95-.407-2.317-.806-4.636-1.224-6.95-.323-1.775-1.812-2.82-3.571-2.522-2.32.395-4.633.807-6.95 1.221L9.82 10.732c-1.352.237-2.472 1.216-2.543 2.464-.058 1.018.152 2.05.245 3.096h38.624a8.758 8.758 0 0 1 1.917.178c3.119.704 5.196 3.295 5.215 6.527.024 4.288 0 8.576 0 12.864l.007.813ZM3.66 32.748h45.943v-4.519H3.66v4.519Zm45.954-8.251c0-.723.086-1.414-.016-2.077-.239-1.546-1.53-2.502-3.28-2.502H6.96a4.752 4.752 0 0 0-.662.04c-1.37.195-2.39 1.118-2.6 2.478-.101.662-.015 1.35-.015 2.06h45.931Z"/><path d="M13.318 48.691c-1.29 0-2.582.008-3.861 0-1.222-.01-2.037-.755-2.026-1.83.012-1.074.828-1.799 2.06-1.802h7.78c1.203 0 2.047.776 2.036 1.835-.011 1.058-.822 1.785-2.01 1.794-1.326.015-2.652.003-3.979.003Z"/></g><defs><clipPath id="a"><path fill="#fff" d="M0 0h61.818v56H0z"/></clipPath></defs></svg>