<svg width="57" height="56" fill="none" xmlns="http://www.w3.org/2000/svg"><g clip-path="url(#a)" fill="#E8BEAC"><path d="M53.835 39.69v-.805c0-.822.007-1.67-.014-2.509a1.772 1.772 0 0 0-.695-1.368 1.807 1.807 0 0 0-1.51-.329c-.838.187-1.387.94-1.388 1.915V48.343c0 2.473-1.604 4.072-4.078 4.072H7.71a4.88 4.88 0 0 1-1.29-.157c-1.8-.495-2.794-1.88-2.794-3.898V13.005c-.01-.397.032-.793.125-1.178.492-1.816 1.902-2.855 3.873-2.855h11.904a2.157 2.157 0 0 0 1.537-.583 1.7 1.7 0 0 0 .493-1.224c-.01-1.043-.838-1.772-2-1.774h-2.095c-3.286-.007-6.685-.014-10.029.008-2.84.02-5.074 1.309-6.46 3.74-.331.578-.52 1.218-.699 1.839-.078.267-.16.546-.251.808L0 11.85v37.701l.023.067c.092.26.173.538.253.806.183.62.371 1.26.698 1.837 1.432 2.48 3.696 3.74 6.73 3.74h.009c8.98-.006 18.111-.006 26.941 0H46.1c.28 0 .547-.01.783-.02 3.736-.16 6.846-3.258 6.92-6.909.047-2.199.04-4.433.033-6.592V39.69Z"/><path d="M54.787 3.552a42.403 42.403 0 0 0-1.884-1.844A6.578 6.578 0 0 0 48.487 0h-.014c-1.925.028-3.57.747-5.03 2.197l-3.395 3.374c-6.368 6.332-12.953 12.884-19.48 19.27-1.504 1.474-2.41 3.012-2.848 4.84-.508 2.118-1.118 4.254-1.711 6.321-.28.97-.56 1.962-.839 2.947-.253.911.05 1.716.81 2.153.263.151.563.23.868.227a3.33 3.33 0 0 0 .879-.139l1.593-.44c3.048-.847 6.198-1.715 9.287-2.547a3.79 3.79 0 0 0 1.759-1.012c6.404-6.363 12.923-12.826 19.227-19.077l4.86-4.819c.14-.138.31-.307.468-.48 2.496-2.727 2.44-6.614-.134-9.263Zm-29.549 31.83-5.756 1.586 1.593-5.712 4.163 4.127Zm26.855-24.836c-.302.32-.606.637-.901.944l-.045.046-6.024-5.982c.128-.112.255-.226.38-.337.522-.467 1.061-.949 1.652-1.288 1.033-.592 2.131-.486 3.092.295a17.832 17.832 0 0 1 2.29 2.273c.781.918.791 2.494.023 3.51-.145.188-.301.368-.467.539Zm-3.772 3.521L28.713 33.504l-5.741-5.691 19.6-19.437 5.749 5.691Z"/></g><defs><clipPath id="a"><path fill="#fff" d="M0 0h56.757v56H0z"/></clipPath></defs></svg>