<svg width="56" height="56" fill="none" xmlns="http://www.w3.org/2000/svg"><g clip-path="url(#a)" fill="#E8BEAC"><path d="M55.963 2.652c-.45-1.439-1.33-2.304-2.615-2.576a4.388 4.388 0 0 0-.914-.078H3.544C1.396-.002 0 1.39 0 3.542v48.527c0 2.18.611 3.088 2.61 3.888l.102.041h50.535l.076-.022c1.367-.388 2.255-1.277 2.645-2.643l.021-.078V2.735l-.027-.083Zm-8.46 5.84v39.026H8.477V8.492h39.026Zm.87-2.989c-.248 0-.495 0-.756-.011-.221 0-.452-.013-.68-.013H31.624c-7.676 0-15.455 0-23.15.027-.698 0-1.098-.167-1.538-.646-.572-.634-1.184-1.225-1.825-1.844h45.765c-.858.853-1.675 1.669-2.504 2.487ZM5.416 7.531c.038.095.062.195.073.296.01.096.01.191 0 .287 0 .085-.01.171-.01.257v6.767c0 10.635 0 21.632.023 32.448 0 .65-.143 1.017-.572 1.408-.661.602-1.28 1.236-1.93 1.906V5.098c.798.793 1.62 1.615 2.416 2.433ZM7.62 50.492c.256 0 .52 0 .776.014.254.015.545.015.822.015h5.805c10.659 0 21.682 0 32.523-.023.688 0 1.077.16 1.492.62.583.648 1.195 1.247 1.84 1.878H5.11c.859-.858 1.68-1.677 2.51-2.503Zm42.947-2.035a1.5 1.5 0 0 1-.065-.297c-.01-.1-.01-.2 0-.3 0-.085.01-.17.01-.254v-6.607c0-10.687 0-21.737-.02-32.605 0-.64.143-1.002.547-1.36a37.158 37.158 0 0 0 1.743-1.705l.209-.213v45.791c-.804-.813-1.629-1.634-2.424-2.45Z"/><path d="M11.502 20.344a1.672 1.672 0 0 0 1.172-.52c2.803-2.793 5.063-5.056 7.114-7.121.166-.181.305-.385.413-.605.052-.095.107-.197.175-.305l.226-.367-.286-.319c-.07-.074-.133-.156-.202-.242a2.491 2.491 0 0 0-.631-.616c-.266-.165-.972-.463-1.762.329l-1.43 1.43a5337.616 5337.616 0 0 0-5.725 5.733 1.66 1.66 0 0 0-.518 1.164 1.44 1.44 0 0 0 .443 1.021 1.43 1.43 0 0 0 1.011.418ZM10.91 14.686c.07.044.143.087.181.123l.264.21.312-.128c.076-.032.143-.057.223-.08a1.45 1.45 0 0 0 .572-.302 46.59 46.59 0 0 0 2.028-2.027c.512-.553.485-1.373-.064-1.949-.55-.575-1.413-.636-1.96-.143a23.855 23.855 0 0 0-2.077 2.097c-.36.416-.3 1.145-.143 1.518.134.342.43.53.664.681Z"/></g><defs><clipPath id="a"><path fill="#fff" d="M0 0h55.989v56H0z"/></clipPath></defs></svg>