<svg width="56" height="56" fill="none" xmlns="http://www.w3.org/2000/svg"><g clip-path="url(#a)"><path d="M28.32 0c1.574.086 2.962.998 3.807 2.789 1.916 4.055 3.844 8.103 5.745 12.166.258.551.583.806 1.181.888 4.335.631 8.664 1.3 12.994 1.973 1.817.284 3.08 1.344 3.675 3.153.605 1.836.218 3.52-1.101 4.881a785.722 785.722 0 0 1-9.33 9.475c-.528.53-.686 1.026-.559 1.772.754 4.41 1.468 8.828 2.19 13.243.318 1.945-.272 3.562-1.79 4.716-1.516 1.154-3.176 1.236-4.85.322-3.286-1.79-6.57-3.59-9.853-5.398-.607-.332-1.226-.644-1.818-1.004-.433-.268-.802-.232-1.243.011-3.883 2.15-7.774 4.281-11.673 6.396-2.872 1.554-6.172-.111-6.645-3.409-.128-.926.058-1.924.209-2.871a981.586 981.586 0 0 1 2.008-12.123c.11-.65-.03-1.096-.492-1.56-3.139-3.156-6.262-6.33-9.369-9.522-1.558-1.596-1.848-3.96-.739-5.846.75-1.278 1.856-2.015 3.279-2.238 4.37-.672 8.74-1.343 13.113-1.984.505-.075.784-.31 1-.768 1.931-4.12 3.873-8.232 5.825-12.337C24.712.983 26.224 0 28.32 0ZM12.854 51.144c0 .731.504.955 1.215.567 3.837-2.1 7.681-4.19 11.507-6.313 1.656-.919 3.249-.89 4.893.028 3.805 2.12 7.625 4.21 11.461 6.272.258.134.73.201.916.05.187-.15.268-.633.219-.94-.683-4.272-1.338-8.55-2.121-12.803-.432-2.343.157-4.147 1.828-5.776 3.027-2.941 5.951-5.999 8.897-9.028.213-.217.423-.658.347-.896-.076-.237-.492-.478-.787-.523-4.286-.672-8.577-1.323-12.871-1.952-1.749-.258-3.043-1.147-3.822-2.82-.442-.941-.892-1.881-1.34-2.83-1.498-3.166-2.988-6.337-4.506-9.49-.13-.27-.47-.58-.73-.599-.213-.014-.508.339-.668.595-.257.403-.422.86-.627 1.293-1.721 3.638-3.455 7.27-5.158 10.919-.773 1.641-1.973 2.627-3.704 2.894-2.593.403-5.188.786-7.783 1.178-1.803.269-3.594.538-5.385.836-.258.043-.604.268-.673.495-.068.227.107.587.275.806.271.362.624.656.942.98 2.833 2.881 5.666 5.76 8.5 8.638 1.26 1.273 1.747 2.792 1.453 4.584-.535 3.275-1.077 6.549-1.623 9.822-.223 1.358-.44 2.705-.655 4.013Z" fill="#E8BEAC"/></g><defs><clipPath id="a"><path fill="#fff" d="M0 0h56v56H0z"/></clipPath></defs></svg>