<svg width="75" height="56" fill="none" xmlns="http://www.w3.org/2000/svg"><g clip-path="url(#a)" fill="#E8BEAC"><path d="M75 37.287c-1.434 1.463-2.793 3.01-4.314 4.375-5.766 5.177-12.205 9.276-19.526 11.884-4.544 1.617-9.216 2.51-14.047 2.454-5.915-.072-11.53-1.51-16.907-3.92-7.378-3.305-13.794-8-19.404-13.819-1.067-1.105-1.071-1.71 0-2.817 6.635-6.842 14.276-12.16 23.276-15.363 9.84-3.497 19.58-3.085 29.2.874 7.908 3.242 14.725 8.111 20.7 14.215.371.38.686.82 1.022 1.233v.884Zm-53.59-.423c.01 8.933 7.253 16.205 16.126 16.194 8.873-.01 16.095-7.304 16.085-16.234-.01-8.93-7.249-16.2-16.126-16.193-8.878.009-16.096 7.297-16.085 16.233Zm29.522 13.642c7.974-3.075 14.643-7.76 20.554-13.617-3.918-4.714-16.747-13.195-20.404-13.52 7.079 7.226 7.493 19.364-.15 27.137ZM23.947 23.337c-4.52.887-17.39 9.446-20.346 13.531C7.575 41.585 20.304 49.996 23.95 50.32c-7.031-7.138-7.543-19.351-.003-26.982ZM38.98 5.97c0 1.372.007 2.744 0 4.116 0 1.014-.575 1.676-1.432 1.696-.884.019-1.49-.66-1.492-1.707-.006-2.794-.006-5.588 0-8.38 0-1.018.57-1.676 1.432-1.695.884-.02 1.486.66 1.492 1.707.005 1.42 0 2.842 0 4.263ZM56.55 6.355a4.11 4.11 0 0 1-.275.717 1071.812 1071.812 0 0 1-4.234 7.384c-.506.874-1.348 1.122-2.097.664-.72-.44-.912-1.275-.434-2.117 1.413-2.487 2.837-4.97 4.27-7.448.4-.69 1.014-.944 1.657-.768.644.175 1.09.734 1.112 1.568ZM25.813 13.747c-.06.797-.376 1.293-1.024 1.506a1.346 1.346 0 0 1-1.617-.524c-.26-.385-.499-.784-.716-1.195-1.235-2.164-2.488-4.324-3.715-6.495-.412-.728-.331-1.381.197-1.878.498-.465 1.083-.579 1.678-.236.269.164.493.394.652.668a819.135 819.135 0 0 1 4.272 7.446c.11.228.202.465.273.708Z"/><path d="M37.505 29.478a7.285 7.285 0 0 1 4.07 1.237 7.357 7.357 0 0 1 2.701 3.306 7.413 7.413 0 0 1 .42 4.26 7.383 7.383 0 0 1-2.004 3.775 7.305 7.305 0 0 1-3.75 2.017 7.274 7.274 0 0 1-4.23-.421 7.33 7.33 0 0 1-3.285-2.718 7.403 7.403 0 0 1-1.23-4.097 7.411 7.411 0 0 1 2.149-5.195 7.313 7.313 0 0 1 5.16-2.164Z"/></g><defs><clipPath id="a"><path fill="#fff" d="M0 0h75v56H0z"/></clipPath></defs></svg>