<svg width="56" height="56" fill="none" xmlns="http://www.w3.org/2000/svg"><g clip-path="url(#a)" fill="#E8BEAC"><path d="M56 6.35v43.307c-.04.1-.074.203-.1.307-.52 2.818-2.156 4.694-4.83 5.673-.464.146-.936.267-1.413.363H6.345a.968.968 0 0 0-.197-.085C2.37 55.231.003 52.418.003 48.577V7.417a8.127 8.127 0 0 1 .178-1.78c.78-3.41 3.603-5.62 7.17-5.623 11.316-.006 22.632-.006 33.947 0 2.533 0 5.068-.02 7.598.007a7.112 7.112 0 0 1 6.712 4.865c.17.475.265.972.392 1.464ZM23.367 35.805c.112-.187.239-.365.379-.532 4.774-4.787 9.552-9.57 14.335-14.348a5.728 5.728 0 0 1 1.232-.986c2.025-1.121 4.212-.628 5.741 1.255 2.414 2.968 4.826 5.938 7.237 8.909.105.137.227.246.403.432.01-.2.019-.288.019-.376V7.364c0-2.45-1.677-4.064-4.171-4.065H7.485a5.015 5.015 0 0 0-1.296.15c-1.832.496-2.893 1.983-2.893 4.015v30.504c0 .137.012.274.023.488.204-.162.345-.267.478-.38l7.912-6.73c2.026-1.728 4.162-1.754 6.223-.053 1.767 1.455 3.53 2.93 5.436 4.512Zm4.658 16.904H48.58c2.477 0 4.123-1.643 4.13-4.108.01-4.117.01-8.235 0-12.354a1.216 1.216 0 0 0-.241-.685c-.67-.864-1.37-1.703-2.055-2.552l-7.942-9.758c-.318-.393-.685-.729-1.197-.573a2.29 2.29 0 0 0-.884.595c-5.21 5.203-10.416 10.41-15.615 15.621-.92.92-1.69.959-2.682.137-2.092-1.73-4.18-3.464-6.267-5.203-.797-.662-1.175-.667-1.959 0a4088.993 4088.993 0 0 0-10.232 8.724c-.2.19-.319.448-.335.723a207.29 207.29 0 0 0-.008 5.302 4.91 4.91 0 0 0 .15 1.242c.497 1.824 1.977 2.876 4.014 2.876 6.857.01 13.711.015 20.564.014h.004Z"/><path d="M9.682 14.841a7.94 7.94 0 0 1 4.911-7.34 7.947 7.947 0 0 1 10.83 5.81 7.94 7.94 0 0 1-3.406 8.15 7.946 7.946 0 0 1-4.422 1.322 7.973 7.973 0 0 1-7.913-7.942Zm3.31 0a4.644 4.644 0 0 0 4.639 4.652 4.647 4.647 0 0 0 4.653-4.638c.008-2.528-2.159-4.689-4.674-4.656a4.676 4.676 0 0 0-4.619 4.64v.002Z"/></g><defs><clipPath id="a"><path fill="#fff" d="M0 0h56v56H0z"/></clipPath></defs></svg>