<svg width="45" height="56" fill="none" xmlns="http://www.w3.org/2000/svg"><g clip-path="url(#a)" fill="#E8BEAC"><path d="M44.684 27.775V16.313a2.424 2.424 0 0 0-.678-1.732A29544.27 29544.27 0 0 1 30.706.626 1.942 1.942 0 0 0 29.234 0c-5.039.01-10.162.01-15.116.012h-7.12a4.032 4.032 0 0 0-.919.095C2.46.959.022 4.048.016 7.796c-.006 4.746-.005 9.58 0 14.249v25.927c0 4.646 3.38 8.02 8.03 8.023H36.676c2.214 0 4.243-.802 5.717-2.254 1.473-1.452 2.29-3.476 2.296-5.686l-.004-20.28Zm-6.999-13.66H33.928c-1.713-.021-2.761-1.029-2.804-2.697-.035-1.384-.025-2.796-.016-4.163v-.768l7.268 7.628h-.69ZM27.386 11.21c0 1.931.642 3.59 1.848 4.795 1.206 1.206 2.86 1.846 4.79 1.85H40.935v30.067c0 2.113-1.1 3.636-3.02 4.179-.42.107-.853.156-1.287.144-9.524.01-19.14.011-28.577 0-2.614 0-4.305-1.695-4.306-4.314V7.965c0-2.576 1.71-4.315 4.252-4.315H27.383v2.39l.003 5.17Z"/><path d="M24.174 33.184v-12.65a4.531 4.531 0 0 0-.06-.85 1.845 1.845 0 0 0-1.993-1.482c-1.02.093-1.68.899-1.68 2.05v12.941a5070.75 5070.75 0 0 0-2.59-2.781l-1.814-1.954c-.347-.37-.902-.852-1.74-.724-.74.107-1.273.539-1.51 1.212-.175.504-.228 1.27.514 2.063 1.67 1.781 3.361 3.598 4.997 5.355l2.377 2.544c.36.387.922.901 1.637.901.723 0 1.294-.528 1.669-.926 1.07-1.15 2.142-2.302 3.215-3.452l3.524-3.782.21-.221c.233-.234.451-.482.653-.742a1.834 1.834 0 0 0 .254-1.76 1.874 1.874 0 0 0-1.402-1.16c-.923-.18-1.527.324-1.95.776l-1.556 1.677c-.921.99-1.84 1.978-2.755 2.965ZM24.685 43.1H11.508c-.942 0-1.733.597-1.923 1.449a1.816 1.816 0 0 0 1.032 2.075c.35.145.725.215 1.103.206 3.948.006 7.883.007 11.731.007h9.539c.263.005.525-.025.78-.089a1.834 1.834 0 0 0 1.333-1.388c.177-.73-.08-1.425-.673-1.815a2.647 2.647 0 0 0-1.379-.432c-2.789-.021-5.624-.02-8.366-.014Z"/></g><defs><clipPath id="a"><path fill="#fff" d="M0 0h44.684v56H0z"/></clipPath></defs></svg>