<svg width="56" height="56" fill="none" xmlns="http://www.w3.org/2000/svg"><g clip-path="url(#a)" fill="#E8BEAC"><path d="M56 26.35v3.288c-.04.154-.071.311-.092.47-.229 3.323-.988 6.526-2.441 9.518-4.378 9.01-11.496 14.415-21.409 16.067-.804.137-1.616.21-2.425.313H26.46c-.177-.033-.353-.074-.532-.098-1.046-.137-2.105-.208-3.14-.41-6.463-1.234-11.876-4.35-16.1-9.383-5.85-6.97-7.833-15.009-6.064-23.91 1.245-6.278 4.43-11.489 9.326-15.593C16.296 1.289 23.651-.786 31.84.272c6.106.791 11.36 3.424 15.757 7.736 4.276 4.194 6.956 9.25 7.978 15.165.176 1.05.284 2.117.425 3.177ZM26.355 3.335c-5.928.453-10.992 2.675-15.209 6.597.586.637 1.128 1.252 1.698 1.84.745.77.822 1.744.172 2.433-.685.718-1.652.685-2.466-.086-.58-.548-1.152-1.104-1.73-1.66-3.48 4.11-5.344 9.804-5.399 13.88h5.566c.235-.008.471.014.701.066a1.601 1.601 0 0 1 1.18 1.742c-.099.862-.755 1.457-1.688 1.466-1.732.017-3.464 0-5.196 0H3.4c.239 5.512 2.757 11.568 7.176 15.858.607-.548 1.233-1.084 1.817-1.654.796-.771 1.77-.85 2.466-.162.675.666.655 1.679-.106 2.428-.53.523-1.126.982-1.693 1.47 2.562 2.541 10.03 5.307 13.302 5.01v-.566c0-1.714-.008-3.425 0-5.141 0-1.018.709-1.75 1.645-1.751.935-.002 1.629.73 1.636 1.748.008 1.404 0 2.808 0 4.212v1.586c5.57-.411 10.4-2.416 14.513-5.96-.618-.662-1.192-1.271-1.758-1.889-.44-.48-.598-1.04-.383-1.667a1.579 1.579 0 0 1 1.259-1.096c.607-.122 1.104.114 1.534.529l1.773 1.714c3.656-4.247 5.67-9.085 6.07-14.66h-.673c-1.731 0-3.463.015-5.195 0-.977-.012-1.698-.739-1.694-1.643.005-.904.72-1.617 1.703-1.626 1.458-.014 2.918 0 4.375 0h1.479c-.372-5.242-2.193-9.837-5.374-13.816-.573.53-1.133 1.024-1.663 1.55-.809.796-1.755.885-2.467.202-.71-.684-.663-1.677.096-2.474.565-.593 1.135-1.181 1.72-1.79-4.342-4.005-9.403-6.231-15.316-6.674v.671c0 1.732.013 3.465 0 5.197-.012 1.17-1.054 1.93-2.134 1.591-.699-.217-1.135-.846-1.139-1.686-.017-1.904-.013-3.799-.013-5.787v-.002Z"/><path d="M26.354 21.552c0-2.078-.01-4.155 0-6.233.01-1.287 1.151-2.106 2.264-1.63.715.304 1.018.886 1.017 1.656-.006 2.825-.006 5.65 0 8.474 0 .96.015 1.932-.009 2.898a.864.864 0 0 0 .37.778c2.74 2.203 5.475 4.415 8.203 6.635.773.627 1.011 1.3.73 2.044a1.607 1.607 0 0 1-2.253.866 3.838 3.838 0 0 1-.63-.43c-2.919-2.36-5.824-4.736-8.758-7.076-.686-.548-.96-1.166-.947-2.022.042-1.987.013-3.973.013-5.96Z"/></g><defs><clipPath id="a"><path fill="#fff" d="M0 0h56v56H0z"/></clipPath></defs></svg>