<svg width="103" height="90" fill="none" xmlns="http://www.w3.org/2000/svg"><path d="M0 75.81v-1.6c.361-.505.645-1.096 1.098-1.5 3.125-2.771 5.585-6.07 7.65-9.666 6.116-10.657 8.91-22.238 9.173-34.457.134-6.412.028-12.8.037-19.197 0-2.194 1.195-3.38 3.4-3.382h14.746V3.165c.028-1.838 1.318-3.176 3.027-3.154 1.71.023 2.919 1.341 2.95 3.134.016.923 0 1.848 0 2.805h14.958V3.307c0-1.952 1.242-3.293 2.985-3.296 1.743-.002 2.983 1.35 2.983 3.287v2.627h15.158V3.137C78.193 1.347 79.441.025 81.11 0c1.668-.025 3.002 1.31 3.033 3.15.014.923 0 1.846 0 2.847h14.243c2.619 0 3.706 1.082 3.706 3.683v76.582c0 2.673-1.07 3.738-3.747 3.738H20.898a3.007 3.007 0 0 1-2.056-.876 3.024 3.024 0 0 1-.887-2.057c-.02-.401 0-.8 0-1.201v-7.862h-1.176c-4.287 0-8.573-.059-12.86.028C2.09 78.079.774 77.497 0 75.81Zm96.112-45.746H23.898c-.706 15.3-4.662 29.473-14.05 41.946h66.824c3.57 0 3.614.025 5.871-2.788 9.149-11.402 12.751-24.728 13.569-39.158ZM84.157 12.03V14.8c-.022 1.86-1.273 3.198-2.98 3.203-1.706.006-2.974-1.332-2.996-3.184v-2.734H63.007v2.787c-.03 1.835-1.332 3.173-3.038 3.142-1.707-.03-2.91-1.352-2.939-3.144v-2.788H42.078v2.651c-.017 1.935-1.26 3.287-3.002 3.281-1.743-.005-2.966-1.363-2.978-3.306v-2.64H23.995v11.879h72.047V12.03H84.158Zm11.928 46.417c-.091.059-.163.078-.183.12-.133.279-.256.558-.38.814-2.97 6.384-6.603 12.311-11.676 17.268a4.654 4.654 0 0 1-3.483 1.38c-18.408-.032-36.818-.038-55.23-.02H23.98v5.944h72.108V58.447Z" fill="#E8BEAC"/></svg>