<svg width="89" height="90" fill="none" xmlns="http://www.w3.org/2000/svg"><path d="M88.73 62.325V15.932a15.97 15.97 0 0 0-4.657-11.261A15.878 15.878 0 0 0 72.843 0H15.888a15.878 15.878 0 0 0-11.23 4.67A15.97 15.97 0 0 0 0 15.933v46.393a15.97 15.97 0 0 0 4.657 11.261 15.878 15.878 0 0 0 11.23 4.671h50.88a624.705 624.705 0 0 1-2.898-6.21H15.887a9.693 9.693 0 0 1-6.847-2.85 9.75 9.75 0 0 1-2.843-6.867V15.932A9.75 9.75 0 0 1 9.04 9.066a9.693 9.693 0 0 1 6.847-2.851h56.957a9.693 9.693 0 0 1 6.846 2.85 9.75 9.75 0 0 1 2.844 6.867v46.393a9.7 9.7 0 0 1-2.666 6.685c.832 1.993 1.83 3.907 2.773 5.838a15.901 15.901 0 0 0 4.484-5.557 15.947 15.947 0 0 0 1.605-6.966Z" fill="#E8BEAC"/><path d="M59.275 62.457c-.144-.35-.248-.633-.377-.905a21277.83 21277.83 0 0 0-13.17-27.872c-.432-.912-.713-2.145-1.448-2.589-.736-.444-1.988-.152-2.982-.12-4.56.15-8.346 3.43-8.974 7.747-.679 4.67 1.853 8.97 6.191 10.493 2.172.748 4.348.67 6.577-.1l2.01 5.086c-3.69 1.767-10.068 1.765-14.746-2.12-4.924-4.087-6.865-9.387-5.175-15.569 2.102-7.684 7.702-11.001 15.481-11.213V8.824c.306.194.418.249.512.326 4.426 3.606 8.847 7.217 13.263 10.832.315.286.569.635.745 1.024.567 1.119 1.088 2.26 1.648 3.436 2.79-1.51 4.67-3.69 5.078-6.763.318-2.402.171-4.869.229-7.306V9.294h5.553c0 2.328.025 4.608 0 6.888a14.729 14.729 0 0 1-3.133 8.928 15.416 15.416 0 0 1-5.327 4.37c.149.344.265.628.395.902l6.956 14.732c2.606 5.523 5.212 11.05 7.817 16.578l3.076 6.311c1.74 4.575 4.532 8.637 5.757 13.379v1.495c-.062.202-.14.399-.181.603-.497 2.447-1.787 4.316-3.976 5.524-4.017 2.218-8.9.613-10.932-3.638a1164.175 1164.175 0 0 1-7.57-16.077l-3.298-6.832Zm-11.059-42c0 1.48.04 2.742-.012 3.987a5.516 5.516 0 0 0 .579 2.664 31842.94 31842.94 0 0 1 22.44 47.526c.127.267.279.518.433.805l4.127-1.969c-.124-.281-.194-.45-.273-.615L52.65 24.402a2.215 2.215 0 0 0-.514-.748c-1.225-1.026-2.477-2.025-3.92-3.196ZM73.984 80.51c.497.996.89 1.94 1.401 2.81a2.212 2.212 0 0 0 2.815.868c1.044-.451 1.663-1.553 1.31-2.637-.338-1.034-.857-2.01-1.312-3.045l-4.214 2.004Z" fill="#E8BEAC"/></svg>