<svg width="102" height="90" fill="none" xmlns="http://www.w3.org/2000/svg"><path d="M101.302 71.422c-.376 1.565-.614 3.181-1.149 4.692-2.995 8.466-10.316 13.763-19.228 13.884-4.486.062-8.551-1.383-12.153-4.066a3.079 3.079 0 0 0-1.982-.667c-17.541.019-35.082.019-52.623 0-5.965 0-10.362-2.63-12.953-8.089A13.03 13.03 0 0 1 0 71.507V13.771C.017 5.92 5.913.064 13.878.04c18.53-.055 37.06-.055 55.59 0 8.07.023 13.813 5.952 13.828 14.071.016 11.277.016 22.554 0 33.83v.905c2.497.921 4.942 1.56 7.142 2.68 6.14 3.13 9.539 8.315 10.639 15.078.048.29.138.57.21.856l.015 3.961ZM5.158 51.926l.256.164a9.14 9.14 0 0 1 .668-.852c4.63-4.71 9.263-9.413 13.9-14.11 1.575-1.595 2.91-1.595 4.494 0 4.464 4.5 8.925 9.004 13.38 13.512.275.332.526.684.75 1.052.432-.53.66-.862.939-1.144 6.7-6.752 13.4-13.502 20.098-20.249 1.813-1.826 3.013-1.818 4.86.029l12.79 12.827c.235.236.491.451.88.81V14.37c0-5.439-3.627-9.061-9.068-9.064H14.208a10.204 10.204 0 0 0-2.74.308c-3.941 1.126-6.31 4.3-6.328 8.438-.017 12.431-.017 24.864 0 37.297-.005.195.018.388.018.578Zm56.575-16.47a7.49 7.49 0 0 1-.583.695 28185.452 28185.452 0 0 1-20.168 20.307c-1.616 1.627-3.038 1.622-4.668-.015a9740.94 9740.94 0 0 1-13.276-13.34 4.536 4.536 0 0 1-.56-.936c-.356.313-.45.351-.512.42A21397.076 21397.076 0 0 0 5.524 59.21a1.627 1.627 0 0 0-.374 1.044c-.028 3.735-.09 7.473.023 11.205a10.51 10.51 0 0 0 .857 3.812c1.607 3.664 4.84 4.995 8.495 5.018 15.86.098 31.72.041 47.579.039.278 0 .56-.026.923-.046-3.187-6.1-3.952-12.314-1.246-18.671 2.707-6.357 7.633-10.262 14.29-12.08L61.732 35.456Zm18.995 18.778c-8.441-.046-15.186 6.776-15.281 15.303-.097 8.681 7.418 15.202 15.15 15.225 8.457.028 15.3-6.641 15.372-15.092a15.29 15.29 0 0 0-1.107-5.901 15.252 15.252 0 0 0-3.293-5.015 15.168 15.168 0 0 0-10.841-4.52Z" fill="#E8BEAC"/><path d="M83.31 67.518c0 3.368.053 6.736-.04 10.105a3.88 3.88 0 0 1-.887 2.185c-.652.785-1.67.94-2.632.5-.962-.438-1.62-1.236-1.624-2.393v-10.69c-.555.552-.931.934-1.318 1.309-1.186 1.149-2.913 1.26-3.9.256-.988-1.003-.94-2.742.214-3.912 1.856-1.881 3.721-3.75 5.597-5.608 1.22-1.208 2.607-1.303 3.858-.115 2.046 1.931 4.005 3.93 5.947 5.957 1.023 1.06.951 2.778 0 3.686-.998.947-2.686.906-3.753-.139a15.611 15.611 0 0 1-1.12-1.362l-.343.22Z" fill="#E8BEAC"/></svg>