<svg width="90" height="90" fill="none" xmlns="http://www.w3.org/2000/svg"><path d="M49.25 36.512a6.526 6.526 0 0 0 3.634-1.1 6.554 6.554 0 0 0 2.413-2.94 6.577 6.577 0 0 0-1.406-7.149 6.523 6.523 0 0 0-7.124-1.433 6.545 6.545 0 0 0-2.939 2.41 6.572 6.572 0 0 0-1.108 3.642c0 1.739.687 3.407 1.911 4.638a6.54 6.54 0 0 0 4.618 1.932Zm0-9.98a3.414 3.414 0 0 1 3.175 2.098 3.44 3.44 0 0 1-.719 3.746 3.418 3.418 0 0 1-5.854-2.396c0-.907.356-1.777.99-2.422a3.432 3.432 0 0 1 2.402-1.025h.005Z" fill="#E8BEAC"/><path d="M88.575 37.46c-4.673-4.076-9.321-8.178-13.996-12.254a1.555 1.555 0 0 1-.598-1.332c.032-1.641.019-3.282 0-4.923 0-1.897-1.044-2.944-2.922-2.954-2.045 0-4.09.026-6.133-.027a2.08 2.08 0 0 1-1.278-.533c-3.82-3.75-7.634-7.507-11.384-11.327C50.442 2.26 48.606.498 45.929 0H44c-2.595.341-4.39 1.945-6.14 3.73-3.87 3.947-7.81 7.826-11.75 11.705a2.082 2.082 0 0 1-1.274.532c-2.046.056-4.09.016-6.133.027-1.881 0-2.922 1.066-2.922 2.949 0 1.668.029 3.34-.027 5.008-.022.442-.205.86-.515 1.175-4.638 4.113-9.297 8.186-13.95 12.296C.78 37.87.424 38.489 0 39.021v43.954c.515 1.258.845 2.64 1.594 3.746C3.16 89.054 5.54 89.997 8.306 90H81.304c3.453 0 6.15-1.372 7.645-4.56a8.922 8.922 0 0 0 .797-3.642c.053-13.914.03-27.83.042-41.746a3.254 3.254 0 0 0-1.213-2.592Zm-14.52-5.72 9.09 7.976-9.09 7.992V31.74Zm-5.312 19.713a1.758 1.758 0 0 1-.648 1.505c-2.507 2.153-4.98 4.348-7.467 6.524-.194.17-.4.328-.65.533l-3.044-2.664c-2.221-1.95-4.42-3.921-6.668-5.842-3.314-2.834-7.437-2.842-10.76 0-3.039 2.614-6.03 5.28-9.031 7.923-.218.189-.444.365-.707.583-2.204-1.931-4.292-3.948-6.582-5.7-1.67-1.282-2.215-2.7-2.186-4.796.013-.847.021-1.694.03-2.541 3.604-2.637 7.408-5.272 10.988-7.872 1.636-1.19 3.344-1.023 4.965.4 2.672 2.344 5.312 4.723 7.995 7.054 2.244 1.952 4.781 2.541 7.623 1.483a9.607 9.607 0 0 0 1.392-.703c4.393-2.544 13.151-7.621 14.75-8.54-.005 4.21-.004 8.426.003 12.645l-.003.008ZM33.641 15.405c3.062-3.061 6.128-6.119 9.199-9.171 1.259-1.25 2.8-1.282 4.037-.062 3.14 3.108 6.27 6.227 9.39 9.356.095.096.175.21.37.442H33.183c.14-.197.293-.386.457-.565Zm-12.593 5.92h47.684V35.4c-5.344 3.098-11.14 6.214-16.468 9.323-1.889 1.103-3.538.938-5.174-.503a4898.483 4898.483 0 0 1-7.897-6.977c-2.84-2.507-6.208-2.664-9.27-.456-2.963 2.148-5.921 4.303-8.875 6.466.04-6.94 0-13.88 0-20.821v-1.108Zm-5.312 10.407v15.984L6.64 39.724l9.095-7.992ZM5.32 81.507V45.574c6.867 6.026 13.637 11.969 20.47 17.96L5.32 81.507Zm74.553 3.184H9.7c.411-.373.703-.64 1-.903L42.886 55.55c1.299-1.142 2.672-1.177 3.931-.074a85869.002 85869.002 0 0 1 32.64 28.658c.17.15.358.266.53.416l-.113.14Zm4.566-3.197L63.986 63.547l20.453-17.941v35.888Z" fill="#E8BEAC"/></svg>